<?xml version="1.0" standalone="no"?>
<!DOCTYPE svg PUBLIC "-//W3C//DTD SVG 20010904//EN"
 "http://www.w3.org/TR/2001/REC-SVG-20010904/DTD/svg10.dtd">
<svg version="1.0" xmlns="http://www.w3.org/2000/svg"
 width="330.000000pt" height="332.000000pt" viewBox="0 0 330.000000 332.000000"
 preserveAspectRatio="xMidYMid meet">
<metadata>
Created by potrace 1.16, written by Peter Selinger 2001-2019
</metadata>
<g transform="translate(0.000000,332.000000) scale(0.100000,-0.100000)"
fill="#ffffff" stroke="none">
<path d="M2147 2773 c-31 -35 -77 -135 -83 -184 -5 -40 -13 -55 -42 -80 -26
-23 -32 -33 -22 -39 10 -6 11 -12 2 -22 -15 -19 -72 -134 -72 -147 0 -6 6 -11
14 -11 11 0 10 -8 -5 -42 -11 -24 -24 -51 -29 -60 -8 -14 -6 -18 5 -18 17 0
20 -16 4 -26 -19 -11 -99 -126 -99 -141 0 -13 2 -13 17 -2 15 13 16 12 8 -6
-22 -52 -21 -162 1 -220 16 -40 -23 4 -46 53 -42 89 -27 195 38 265 23 24 24
27 7 27 -40 0 -232 -121 -220 -140 2 -4 -13 -19 -35 -34 -22 -14 -40 -24 -40
-20 0 12 24 51 48 77 29 31 29 31 -53 17 -33 -6 -105 -15 -160 -20 -120 -12
-200 -32 -269 -66 -66 -33 -163 -107 -148 -112 7 -2 -5 -26 -32 -60 -60 -78
-72 -102 -50 -102 10 0 14 -6 11 -14 -3 -7 -15 -46 -27 -87 -12 -40 -33 -98
-46 -127 -28 -63 -30 -80 -9 -62 33 28 23 0 -21 -59 -26 -35 -73 -80 -108
-104 l-61 -42 30 -6 30 -6 -45 -21 c-32 -15 -65 -22 -112 -22 -38 0 -68 -4
-68 -8 0 -5 13 -27 29 -49 52 -72 124 -107 195 -96 l41 6 -20 -23 -20 -22 35
7 c19 4 50 15 68 26 17 10 39 16 47 13 22 -9 45 14 45 46 0 18 15 45 41 76 43
53 73 110 95 186 20 65 35 61 20 -4 -16 -66 -48 -129 -97 -192 l-39 -49 0
-178 c0 -164 -1 -179 -17 -179 -10 0 -79 -7 -153 -15 -74 -8 -141 -15 -148
-15 -7 0 -10 -4 -7 -10 4 -7 348 -10 1000 -10 652 0 996 3 1000 10 3 6 0 10
-7 10 -7 0 -71 7 -142 15 -124 13 -145 21 -146 51 0 13 -43 34 -71 34 -52 0
-67 169 -35 411 22 166 32 209 50 222 8 7 29 42 46 79 21 48 34 66 44 62 19
-7 49 51 75 143 10 37 23 67 29 66 17 -4 44 78 51 157 5 49 10 69 15 58 5 -10
12 -18 17 -18 13 0 11 111 -2 150 -9 25 -9 34 1 40 9 6 9 13 1 28 -16 30 -14
42 9 42 25 0 96 63 103 92 5 16 -6 32 -48 71 -43 39 -54 54 -49 72 3 12 -1 46
-8 76 -10 38 -12 67 -5 98 9 47 2 136 -13 160 -10 18 -41 -1 -112 -67 -41 -38
-51 -43 -78 -37 -28 6 -30 5 -30 -22 -1 -21 -6 -13 -21 32 -19 55 -66 134 -80
135 -3 0 -13 -8 -22 -17z m48 -116 c9 -28 20 -60 25 -69 8 -13 5 -20 -13 -29
-12 -6 -37 -25 -55 -43 l-34 -31 4 80 c4 80 29 161 47 151 5 -4 17 -30 26 -59z
m263 -37 c2 -48 1 -50 -18 -38 -24 15 -25 36 -4 66 8 12 16 22 17 22 2 0 4
-23 5 -50z m-71 -156 c33 -48 93 -111 127 -135 31 -21 32 -24 18 -35 -14 -11
-15 -16 -4 -33 22 -37 15 -43 -45 -38 -32 3 -75 9 -95 12 -31 6 -38 4 -38 -9
0 -9 -10 -20 -23 -25 -13 -5 -29 -17 -37 -27 -14 -16 -13 -17 3 -11 16 6 18 3
12 -23 -8 -38 -1 -38 42 0 18 17 37 30 41 30 4 0 6 -18 4 -40 -2 -23 1 -61 7
-87 15 -57 8 -66 -14 -18 -10 19 -19 34 -21 32 -2 -2 1 -30 7 -63 12 -62 7
-151 -12 -219 l-11 -39 -13 29 -13 30 -1 -32 c-1 -18 -6 -56 -13 -85 -11 -53
-11 -53 -19 -20 -10 49 -15 47 -28 -10 -6 -29 -18 -64 -26 -78 -13 -23 -14
-17 -15 72 0 84 -15 186 -37 245 -6 17 -5 17 15 -1 22 -19 22 -19 22 1 0 11
-7 37 -15 57 -26 61 1 40 36 -29 19 -36 38 -65 42 -65 16 0 -6 107 -33 156
-46 83 -44 144 6 210 35 46 35 47 11 42 -18 -4 -24 -1 -20 9 3 8 -2 13 -14 13
-24 0 -68 -45 -86 -89 -13 -31 -15 -32 -21 -13 -4 12 -4 38 -1 59 l7 38 -27
-30 -26 -30 4 47 c2 26 14 62 26 80 l22 33 -7 -34 -6 -34 33 32 c19 17 45 34
59 37 14 2 42 14 64 25 27 15 41 18 49 10 6 -6 18 -11 26 -11 8 0 23 -7 33
-17 24 -21 23 -6 -2 35 -15 25 -27 32 -50 32 -16 0 -30 5 -30 10 0 6 7 10 15
10 8 0 15 5 15 10 0 20 40 9 57 -16z m100 -8 c-4 -9 -11 -16 -17 -16 -11 0
-14 33 -3 44 11 10 26 -11 20 -28z m-453 -378 c10 19 12 13 13 -46 l2 -67 -24
29 c-25 31 -35 68 -34 125 0 36 0 36 16 -14 14 -47 16 -48 27 -27z m-351 -101
c-25 -41 -89 -126 -95 -127 -15 -1 20 67 53 102 35 37 58 51 42 25z m-673
-258 c-13 -52 -23 -145 -14 -136 4 4 15 24 25 45 l17 37 1 -55 1 -55 33 50 32
50 3 -47 c2 -27 6 -48 9 -48 10 0 33 33 53 75 14 29 20 34 20 19 0 -50 -63
-174 -90 -174 -5 0 -10 10 -12 23 -2 17 -9 11 -30 -34 -15 -30 -44 -73 -63
-95 l-36 -39 4 160 c3 142 6 166 26 213 26 59 35 63 21 11z m600 -49 c4 0 11
6 13 13 3 6 6 -1 6 -18 l1 -29 35 37 c41 43 60 48 43 11 -9 -19 -9 -30 0 -44
6 -11 9 -32 6 -47 -3 -15 -1 -50 5 -78 5 -27 8 -52 6 -53 -9 -9 -45 81 -45
113 0 36 -13 47 -24 19 -3 -9 -6 -32 -6 -51 0 -28 -3 -33 -13 -24 -8 6 -20 30
-27 53 -19 61 -21 63 -36 37 -12 -22 -13 -20 -14 29 0 32 7 66 18 85 l17 32 3
-42 c2 -24 7 -43 12 -43z m427 28 c24 -47 28 -50 31 -28 7 54 14 55 38 5 22
-48 27 -48 37 0 2 11 7 -1 12 -29 9 -54 -7 -141 -30 -172 -13 -17 -14 -14 -8
29 3 26 3 47 0 47 -3 0 -30 -50 -61 -112 -43 -84 -56 -122 -56 -155 0 -28 4
-42 10 -38 7 4 8 -20 4 -76 -5 -61 -4 -80 4 -75 9 5 12 -24 12 -109 0 -79 4
-125 14 -143 7 -15 17 -47 20 -72 4 -25 9 -57 12 -72 7 -36 -23 -39 -32 -4 -3
15 -17 29 -34 35 -50 17 -55 39 -54 231 1 196 16 335 45 427 10 34 19 65 19
69 0 3 -16 -6 -36 -21 -33 -25 -35 -26 -24 -6 22 42 40 116 40 169 0 32 4 52
11 52 11 0 9 21 -7 78 -11 38 5 24 33 -30z m-691 -89 c-10 -92 -45 -197 -92
-268 -39 -59 -166 -196 -197 -213 -24 -12 70 127 112 166 45 43 38 52 -16 21
l-48 -28 51 54 c69 73 109 135 129 200 9 30 23 66 31 81 8 14 14 33 14 42 0 9
5 16 11 16 8 0 10 -21 5 -71z m531 -47 c-12 -34 -12 -42 -2 -42 11 0 10 -10
-1 -52 -17 -66 -18 -135 -2 -140 10 -4 10 -23 0 -93 -7 -49 -17 -95 -21 -104
-14 -24 -25 272 -12 310 15 43 15 42 -19 34 l-30 -7 45 76 c25 42 46 82 46 89
1 7 4 3 6 -9 2 -11 -2 -40 -10 -62z m-221 -158 c7 3 22 -10 34 -30 15 -23 29
-34 45 -34 36 0 48 -32 40 -107 -4 -41 -3 -63 3 -59 5 3 11 -25 14 -70 3 -41
10 -80 17 -87 8 -8 11 -7 13 4 2 14 11 -86 24 -263 l6 -88 -166 0 c-141 0
-166 2 -166 15 0 25 -38 55 -70 55 -35 0 -44 15 -84 137 -18 53 -25 91 -20
105 9 29 58 103 124 188 63 81 86 130 101 213 l12 66 30 -25 c16 -14 36 -23
43 -20z m-370 -174 c-5 -35 -3 -50 5 -50 17 0 4 -52 -32 -132 -18 -37 -29 -75
-26 -85 2 -10 19 -72 36 -138 17 -66 36 -128 41 -137 9 -17 3 -18 -89 -18 -99
0 -100 0 -113 28 -7 15 -23 28 -35 30 -44 6 -58 37 -61 142 -3 77 0 104 13
131 15 29 251 279 263 279 3 0 2 -22 -2 -50z M2152 2608 c2 -30 8 -53 16 -56
13 -4 17 45 6 86 -11 41 -25 23 -22 -30z M2155 2313 l-18 -28 27 24 c28 26 31
31 17 31 -5 0 -17 -12 -26 -27z"/>
</g>
</svg>
